<svg width="1919" height="366" viewBox="0 0 1919 366" fill="none" xmlns="http://www.w3.org/2000/svg">
<path d="M303.028 203.25C309.891 229.118 329.423 241.788 360.571 241.788C380.632 241.788 395.942 234.926 406.5 221.2L449.262 246.012C429.201 275.048 399.109 289.83 360.043 289.83C326.256 289.83 298.804 279.799 278.215 259.21C257.626 238.621 247.596 212.753 247.596 181.605C247.596 150.986 257.626 125.117 277.687 104.528C297.748 83.9394 323.617 73.3812 355.82 73.3812C385.911 73.3812 410.724 83.9394 430.257 104.528C449.79 125.117 459.82 150.986 459.82 181.605C459.82 188.468 459.293 195.859 457.709 203.25L303.028 203.25ZM302.499 162.072L407.028 162.072C403.861 148.346 398.053 137.788 388.551 130.925C379.048 124.062 368.49 120.894 356.348 120.894C342.094 120.894 330.479 124.59 320.977 131.98C311.474 138.843 305.139 148.874 302.499 162.072ZM723.254 73.3812C747.011 73.3812 765.488 80.772 779.742 96.0818C793.996 111.392 800.859 131.98 800.859 157.321V283.495L748.067 283.495V161.016C748.067 148.874 744.899 139.371 739.092 132.508C733.285 125.645 724.838 122.478 713.752 122.478C701.609 122.478 692.107 126.701 685.772 134.62C678.909 142.539 675.741 154.153 675.741 168.935V284.022H622.949V161.544C622.949 149.402 619.781 139.899 613.974 133.036C608.167 126.173 599.72 123.006 588.634 123.006C577.019 123.006 567.517 127.229 560.654 135.148C553.791 143.067 550.095 154.681 550.095 169.463V284.55H497.303V79.1882L550.095 79.1882V100.833C562.238 82.3556 581.243 73.3812 607.111 73.3812C632.451 73.3812 650.929 83.4116 663.071 102.945C675.741 82.8836 696.33 73.3812 723.254 73.3812ZM1020.47 258.154C999.358 279.271 973.49 289.302 943.398 289.302C913.307 289.302 887.438 278.743 866.321 258.154C845.204 237.565 835.174 211.697 835.174 181.077C835.174 150.986 845.732 125.118 866.321 104.001C887.438 82.8837 912.779 72.853 943.398 72.853C973.49 72.853 999.358 83.4116 1020.47 104.001C1041.59 125.118 1052.15 150.458 1052.15 181.077C1052.15 211.697 1041.59 237.565 1020.47 258.154ZM903.804 222.255C914.362 232.814 927.56 238.093 943.398 238.093C959.236 238.093 972.434 232.814 982.992 222.255C993.551 211.697 998.83 197.971 998.83 181.605C998.83 165.24 993.551 151.514 982.992 140.955C972.434 130.397 959.236 125.118 943.398 125.118C927.56 125.118 914.362 130.397 903.804 140.955C893.245 151.514 887.966 165.24 887.966 181.605C887.966 197.971 893.245 211.169 903.804 222.255ZM1203.14 73.3812C1225.31 73.3812 1244.31 80.772 1258.57 96.0818C1273.35 110.864 1280.74 131.98 1280.74 158.377V284.022H1227.95V164.712C1227.95 150.986 1224.25 140.427 1216.86 133.564C1209.47 126.173 1199.44 122.478 1187.3 122.478C1173.57 122.478 1162.49 126.701 1154.57 135.148C1146.12 143.595 1142.43 156.265 1142.43 173.158V284.022L1089.63 284.022V79.1882H1142.43V101.889C1155.1 82.8836 1175.68 73.3812 1203.14 73.3812ZM1443.34 129.869L1396.88 129.869V214.864C1396.88 221.727 1398.47 227.007 1402.16 230.702C1405.86 233.87 1411.14 235.981 1418 235.981C1424.86 236.509 1433.31 236.509 1443.34 235.981V284.022C1406.91 288.246 1381.57 284.55 1366.26 273.992C1351.48 262.906 1344.09 243.372 1344.09 215.392V130.397H1308.19V79.1882H1344.09V38.0102L1396.88 22.1725V79.1882L1443.34 79.1882V129.869ZM1518.83 203.25C1525.7 229.118 1545.23 241.788 1576.38 241.788C1596.44 241.788 1611.75 234.926 1622.31 221.2L1665.07 246.012C1645.01 275.048 1614.92 289.83 1575.85 289.83C1542.06 289.83 1514.61 279.799 1494.02 259.21C1473.43 238.621 1463.4 212.753 1463.4 181.605C1463.4 150.986 1473.43 125.117 1493.49 104.528C1513.56 83.9394 1539.42 73.3812 1571.63 73.3812C1601.72 73.3812 1626.53 83.9394 1646.06 104.528C1665.6 125.117 1675.63 150.986 1675.63 181.605C1675.63 188.468 1675.1 195.859 1673.52 203.25L1518.83 203.25ZM1518.31 162.072L1622.84 162.072C1619.67 148.346 1613.86 137.788 1604.36 130.925C1594.86 124.062 1584.3 120.894 1572.15 120.894C1557.9 120.894 1546.29 124.59 1536.78 131.98C1527.28 138.843 1520.95 148.874 1518.31 162.072ZM1866.21 79.1882L1919 79.1882V365.85H1866.21V259.738C1850.37 279.799 1828.73 289.83 1799.69 289.83C1772.24 289.83 1748.48 279.271 1728.95 258.682C1709.41 237.565 1699.38 212.225 1699.38 181.605C1699.38 151.514 1709.41 125.645 1728.95 104.528C1748.48 83.4115 1772.24 73.3812 1799.69 73.3812C1828.2 73.3812 1850.37 83.4114 1866.21 103.473V79.1882ZM1768.54 223.311C1779.1 233.87 1792.83 239.677 1809.19 239.677C1825.56 239.677 1839.28 234.398 1849.84 223.311C1860.4 212.753 1865.68 198.499 1865.68 181.605C1865.68 164.712 1860.4 150.986 1849.84 139.899C1839.28 129.341 1825.56 123.534 1809.19 123.534C1792.83 123.534 1779.1 128.813 1768.54 139.899C1757.98 150.458 1752.18 164.712 1752.18 181.605C1752.7 198.499 1757.98 212.225 1768.54 223.311Z" fill="#F7F7F7" fill-opacity="0.8"/>
<path d="M34.8428 177.382L72.3255 136.732H113.503C124.062 136.732 133.036 132.508 140.427 124.589C147.818 116.143 152.042 106.64 152.042 95.0259C152.042 83.4116 148.346 73.3811 140.427 65.4623C139.899 64.9344 139.372 64.4062 138.844 63.8783L175.271 24.2842C176.854 25.868 178.438 26.9238 180.022 28.5075C198.499 46.9848 207.474 69.1576 207.474 95.0259C207.474 112.447 202.722 128.813 192.692 144.123C182.661 158.904 169.463 170.519 153.098 177.91V178.438L215.921 285.078L155.737 285.078L93.9702 178.438L55.9597 178.438L55.9597 285.078H1.05591L0 284.022L0 215.92L34.8428 177.382Z" fill="#F7F7F7" fill-opacity="0.8"/>
<path d="M1.05609 147.291L1.05609 0L114.56 0C122.478 0 129.869 1.05585 137.26 2.63962L90.2749 52.2645L57.0158 52.2645L57.0158 87.6351L1.05609 147.291Z" fill="#F7F7F7" fill-opacity="0.8"/>
</svg>
