<svg width="79" height="79" viewBox="0 0 79 79" fill="none" xmlns="http://www.w3.org/2000/svg">
<mask id="path-1-inside-1_161_840" fill="white">
<path d="M37.1091 50.6827H37.6294C37.5376 50.6827 37.4611 50.6521 37.3693 50.6521C37.2775 50.6521 37.1856 50.6674 37.1091 50.6827Z"/>
</mask>
<path d="M37.1091 50.6827H37.6294C37.5376 50.6827 37.4611 50.6521 37.3693 50.6521C37.2775 50.6521 37.1856 50.6674 37.1091 50.6827Z" fill="#92EAB6"/>
<path d="M37.1091 50.6827L37.0791 50.5327L37.1091 50.8357V50.6827ZM37.1091 50.8357H37.6294V50.5297H37.1091V50.8357ZM37.6294 50.5297C37.5994 50.5297 37.5704 50.5248 37.5267 50.5169C37.4862 50.5095 37.431 50.4991 37.3693 50.4991V50.8051C37.3993 50.8051 37.4283 50.81 37.472 50.818C37.5124 50.8253 37.5676 50.8357 37.6294 50.8357V50.5297ZM37.3693 50.4991C37.262 50.4991 37.1583 50.5168 37.0791 50.5327L37.1391 50.8328C37.213 50.818 37.2929 50.8051 37.3693 50.8051V50.4991Z" fill="#303031" mask="url(#path-1-inside-1_161_840)"/>
<path d="M0 31.7837H29.2282" stroke="#303031" stroke-width="2.44843" stroke-miterlimit="10"/>
<path d="M77.1257 68.5561V22.0358C77.1257 17.3073 73.2847 13.4663 68.5562 13.4663C63.8276 13.4663 59.9866 17.3073 59.9866 22.0358V68.5561C59.9866 63.8275 63.8276 59.9866 68.5562 59.9866C73.2847 59.9866 77.1257 63.8275 77.1257 68.5561ZM77.1257 68.5561C77.1257 73.2846 73.2847 77.1256 68.5562 77.1256H0" stroke="#303031" stroke-width="2.44843" stroke-miterlimit="10"/>
<path d="M42.8474 31.8296L58.9459 31.7837" stroke="#303031" stroke-width="2.44843" stroke-miterlimit="10"/>
<path d="M35.5024 33.054V40.3993H40.4146L40.3993 33.054" stroke="#303031" stroke-width="2.44843" stroke-miterlimit="10"/>
<path d="M33.054 23.26V33.0537H42.8477V23.26" stroke="#303031" stroke-width="2.44843" stroke-miterlimit="10"/>
<path d="M37.9507 40.3992V45.296" stroke="#303031" stroke-width="2.44843" stroke-miterlimit="10"/>
<path d="M33.054 28.157H42.8477" stroke="#303031" stroke-width="2.44843" stroke-miterlimit="10"/>
<path d="M42.8477 0V23.2601H33.054V0" stroke="#303031" stroke-width="2.44843" stroke-miterlimit="10"/>
<path d="M37.9507 0V7.66667" stroke="#303031" stroke-width="2.44843" stroke-miterlimit="10"/>
<path d="M43.0618 37.9507H50.1928V44.6839" stroke="#303031" stroke-width="2.44843" stroke-miterlimit="10"/>
<path d="M50.1928 51.4171V72.2288H13.4663V37.9507H31.9214" stroke="#303031" stroke-width="2.44843" stroke-miterlimit="10"/>
<path d="M28.157 45.296V37.9507" stroke="#303031" stroke-width="2.44843" stroke-miterlimit="10"/>
<path d="M28.157 50.1929V59.9866" stroke="#303031" stroke-width="2.44843" stroke-miterlimit="10"/>
<path d="M28.157 64.8835V72.2288" stroke="#303031" stroke-width="2.44843" stroke-miterlimit="10"/>
<path d="M28.1569 55.0898H13.4663" stroke="#303031" stroke-width="2.44843" stroke-miterlimit="10"/>
</svg>
