<svg width="80" height="65" viewBox="0 0 80 65" fill="none" xmlns="http://www.w3.org/2000/svg">
<path d="M49.7444 63.1865C34.1968 63.1865 21.5874 50.5771 21.5874 35.0296V6.87256H49.7444C65.292 6.87256 77.9014 19.482 77.9014 35.0296C77.9014 50.5771 65.292 63.1865 49.7444 63.1865Z" stroke="#303031" stroke-width="2.44843" stroke-miterlimit="10"/>
<path d="M49.7443 37.4782C51.0966 37.4782 52.1928 36.382 52.1928 35.0297C52.1928 33.6775 51.0966 32.5813 49.7443 32.5813C48.3921 32.5813 47.2959 33.6775 47.2959 35.0297C47.2959 36.382 48.3921 37.4782 49.7443 37.4782Z" stroke="#303031" stroke-width="2.44843" stroke-miterlimit="10"/>
<path d="M2 3.19995V9.32104H19.139" stroke="#303031" stroke-width="2.44843" stroke-miterlimit="10"/>
<path d="M2 8.09692V14.218H19.139" stroke="#303031" stroke-width="2.44843" stroke-miterlimit="10"/>
<path d="M32.1311 57.0654H13.0181V54.617L17.9149 35.0295H21.5876" stroke="#303031" stroke-width="2.44843" stroke-miterlimit="10" stroke-linecap="round"/>
<path d="M33.8297 1.97583H26.4844V6.8727H33.8297V1.97583Z" stroke="#303031" stroke-width="2.44843" stroke-miterlimit="10"/>
<path d="M35.054 11.7695H37.5024" stroke="#303031" stroke-width="2.44843" stroke-miterlimit="10"/>
<path d="M49.7444 47.2719C56.5055 47.2719 61.9865 41.7909 61.9865 35.0298C61.9865 28.2686 56.5055 22.7876 49.7444 22.7876C42.9832 22.7876 37.5022 28.2686 37.5022 35.0298C37.5022 41.7909 42.9832 47.2719 49.7444 47.2719Z" stroke="#303031" stroke-width="2.44843" stroke-miterlimit="10"/>
<path d="M30.157 11.7695H32.6054" stroke="#303031" stroke-width="2.44843" stroke-miterlimit="10"/>
<path d="M25.26 11.7695H27.7084" stroke="#303031" stroke-width="2.44843" stroke-miterlimit="10"/>
</svg>
