<svg width="73" height="79" viewBox="0 0 73 79" fill="none" xmlns="http://www.w3.org/2000/svg">
<path d="M1.22412 43.2441H37.9506" stroke="#303031" stroke-width="2.44843" stroke-miterlimit="10"/>
<path d="M37.9506 48.1409H1.22412" stroke="#303031" stroke-width="2.44843" stroke-miterlimit="10"/>
<path d="M40.3992 7.7417V11.4144" stroke="#303031" stroke-width="2.44843" stroke-miterlimit="10"/>
<path d="M40.3992 2.84497V5.2934" stroke="#303031" stroke-width="2.44843" stroke-miterlimit="10"/>
<path d="M45.2961 5.29346V11.4145" stroke="#303031" stroke-width="2.44843" stroke-miterlimit="10"/>
<path d="M45.2961 0.396484V2.84492" stroke="#303031" stroke-width="2.44843" stroke-miterlimit="10"/>
<path d="M50.1929 0.396484V11.4144" stroke="#303031" stroke-width="2.44843" stroke-miterlimit="10"/>
<path d="M55.0896 7.7417V11.4144" stroke="#303031" stroke-width="2.44843" stroke-miterlimit="10"/>
<path d="M55.0896 2.84497V5.2934" stroke="#303031" stroke-width="2.44843" stroke-miterlimit="10"/>
<path d="M35.5022 2.84497V11.4145" stroke="#303031" stroke-width="2.44843" stroke-miterlimit="10"/>
<path d="M2.44843 35.8988H17.139V28.5535H0" stroke="#303031" stroke-width="2.44843" stroke-miterlimit="10"/>
<path d="M9.7937 21.2083V28.5536" stroke="#303031" stroke-width="2.44843" stroke-miterlimit="10"/>
<path d="M17.1392 28.5535H24.4845" stroke="#303031" stroke-width="2.44843" stroke-miterlimit="10"/>
<path d="M4.89697 21.2083H24.4844" stroke="#303031" stroke-width="2.44843" stroke-miterlimit="10"/>
<path d="M17.1392 12.6387V21.2082" stroke="#303031" stroke-width="2.44843" stroke-miterlimit="10"/>
<path d="M52.6414 57.9348H72.2288" stroke="#303031" stroke-width="2.44843" stroke-miterlimit="10"/>
<path d="M57.5381 65.28H72.2287" stroke="#303031" stroke-width="2.44843" stroke-miterlimit="10"/>
<path d="M67.3318 57.9348V65.2801" stroke="#303031" stroke-width="2.44843" stroke-miterlimit="10"/>
<path d="M52.6414 50.5894H69.7804" stroke="#303031" stroke-width="2.44843" stroke-miterlimit="10"/>
<path d="M59.9866 50.5894V57.9347" stroke="#303031" stroke-width="2.44843" stroke-miterlimit="10"/>
<path d="M12.2422 12.6387V15.0871" stroke="#303031" stroke-width="2.44843" stroke-miterlimit="10"/>
<path d="M22.0359 34.6746V37.123" stroke="#303031" stroke-width="2.44843" stroke-miterlimit="10"/>
<path d="M55.0898 65.28H52.6414" stroke="#303031" stroke-width="2.44843" stroke-miterlimit="10"/>
<path d="M34.5228 48.0032L30.6053 77.5221H8.56941L5.1416 48.0032" stroke="#303031" stroke-width="2.44843" stroke-miterlimit="10"/>
<path d="M45.2961 43.2442V38.3473L64.8835 31.002V22.4325H59.9867V27.3293H30.6055V15.0872H59.9867V18.7598" stroke="#303031" stroke-width="2.44843" stroke-miterlimit="10"/>
<path d="M30.6055 21.2083H26.9329" stroke="#303031" stroke-width="2.44843" stroke-miterlimit="10"/>
<path d="M48.9688 68.9527V43.2441H41.6235V68.9527C41.6235 70.9879 43.2609 72.6253 45.2962 72.6253C47.3314 72.6253 48.9688 70.9879 48.9688 68.9527Z" stroke="#303031" stroke-width="2.44843" stroke-miterlimit="10"/>
</svg>
